<?xml version="1.0"?> <svg xmlns="http://www.w3.org/2000/svg" id="_Слой_1" data-name="Слой 1" viewBox="0 0 1080 300"> <defs>  </defs> <path d="m654.65,105.09c-26.81,0-46.78,20.19-46.78,49.1s19.86,49.1,46.78,49.1,46.67-20.3,46.67-49.1-19.75-49.1-46.67-49.1Zm0,92.67c-22.62,0-40.49-16.55-40.49-43.58s17.87-43.69,40.49-43.69,40.27,16.55,40.27,43.69-17.65,43.58-40.27,43.58h0Z"></path> <path d="m808,129.8c-12.47,0-23.39,6.4-26.92,20.19-3.53-13.79-14.23-20.19-26.7-20.19-11.36,0-21.29,5.41-25.6,17.1v-15.67h-5.96v72.04h5.96v-38.28c0-20.19,10.37-30.01,24.6-30.01s23.06,9.05,23.06,26.48v41.81h5.85v-38.28c0-20.19,10.48-30.01,24.71-30.01s23.06,9.05,23.06,26.48v41.81h5.85v-42.14c0-21.62-12.58-31.33-27.91-31.33Z"></path> <path d="m859.85,131.24v72.04h5.96v-72.04h-5.96Zm3.09-26.15c-2.76,0-4.96,2.21-5.08,4.96v.22c0,2.76,2.21,5.08,5.08,5.08s5.08-2.21,5.08-5.08c.11-2.76-2.1-5.08-4.74-5.19h-.33Z"></path> <path d="m921.53,199.09c-15.34,0-28.8-10.15-28.8-31.99s13.35-31.77,28.8-31.77c12.25,0,21.73,5.74,25.49,15.34h6.4c-4.19-12.47-15.45-20.41-31.88-20.41-20.3,0-34.86,13.9-34.86,36.85s14.56,37.18,34.86,37.18c16.33,0,27.58-8.16,31.77-20.41h-6.4c-3.75,9.71-13.24,15.23-25.38,15.23Z"></path> <path d="m979.01,149c0-7.39,7.28-13.68,17.76-13.68,12.69,0,19.31,7.17,19.86,16.22h5.96c-.77-13.35-10.7-21.18-25.71-21.18-14.01,0-23.83,8.61-23.83,18.65,0,27.36,44.13,15.78,44.13,35.64,0,7.83-6.62,14.45-17.87,14.45-13.68,0-21.18-6.07-22.18-15.23h-6.07c1.32,13.24,12.47,20.41,28.24,20.41,13.79,0,23.72-8.38,23.72-19.64-.22-25.15-44.02-13.35-44.02-35.64Z"></path> <path d="m152.44,128.15c-10.92,0-18.65,5.08-22.84,11.58v-10.48h-22.73v109.22h22.73v-45.56c4.08,6.18,11.92,11.36,22.84,11.36,18.2,0,32.66-14.89,32.66-38.17s-14.56-37.95-32.66-37.95Zm-6.84,56.38c-8.5,0-16.22-6.51-16.22-18.31s7.72-18.31,16.22-18.31,16.33,6.4,16.33,18.2-7.61,18.42-16.33,18.42Z"></path> <path d="m247.87,129.25v10.48c-3.97-6.51-11.8-11.58-22.84-11.58-18.2,0-32.66,14.56-32.66,37.95s14.45,38.17,32.44,38.17c11.03,0,18.87-5.08,22.95-11.58v10.48h22.73v-74.03h-22.62v.11Zm-16.11,55.27c-8.5,0-16.22-6.62-16.22-18.42s7.72-18.2,16.22-18.2,16.22,6.51,16.22,18.31-7.61,18.31-16.22,18.31Z"></path> <path d="m332.05,128.48c-9.93,0-17.87,4.41-22.4,10.59v-9.82h-22.62v74.03h22.62v-40.16c0-10.04,5.52-15.67,14.23-15.67s14.23,5.52,14.23,15.67v40.16h22.51v-43.25c0-19.86-11.47-31.55-28.57-31.55Z"></path> <path d="m427.26,105.09v34.31c-4.52-6.73-13.02-11.25-22.84-11.25-18.2,0-32.66,14.56-32.66,37.95s14.45,38.17,32.66,38.17c10.92,0,18.76-4.85,22.84-11.69v10.59h22.62v-98.08h-22.62Zm-16.11,79.44c-8.5,0-16.22-6.62-16.22-18.42s7.72-18.2,16.22-18.2,16.22,6.51,16.22,18.31-7.61,18.31-16.22,18.31h0Z"></path> <path d="m517.4,129.25v10.48c-3.97-6.51-11.8-11.58-22.84-11.58-18.2,0-32.66,14.56-32.66,37.95s14.45,38.17,32.55,38.17c11.03,0,18.87-5.08,22.95-11.58v10.48h22.62v-74.03h-22.62v.11Zm-16.22,55.27c-8.5,0-16.22-6.62-16.22-18.42s7.72-18.2,16.22-18.2,16.22,6.51,16.22,18.31-7.61,18.31-16.22,18.31Z"></path> <path class="cls-1" d="m520.05,90.2c12.58-17.32,36.74-21.07,53.95-8.61,17.32,12.58,21.07,36.74,8.61,53.95-1.54,2.1-4.52,2.65-6.62,1.1h0c-.44-.33-.77-.66-1.1-1.1-7.83-10.92-15.34-18.98-22.51-24.16-7.17-5.19-17.21-9.82-29.9-13.9h0c-2.54-.77-3.86-3.42-3.09-5.96.11-.44.33-.88.66-1.32Z"></path> <path class="cls-1" d="m126.84,90.2c1.54,2.1,1.1,5.08-1.1,6.62-.44.33-.88.55-1.32.66h0c-12.8,4.08-22.73,8.72-29.9,13.9s-14.67,13.24-22.51,24.16c-1.54,2.1-4.52,2.65-6.62,1.1-.44-.33-.77-.66-1.1-1.1-12.47-17.21-8.61-41.37,8.61-53.95,17.21-12.58,41.48-8.72,53.95,8.61Z"></path> </svg>